<mxfile host="Electron" modified="2023-09-11T16:59:46.833Z" agent="Mozilla/5.0 (Windows NT 10.0; Win64; x64) AppleWebKit/537.36 (KHTML, like Gecko) draw.io/21.6.8 Chrome/114.0.5735.289 Electron/25.5.0 Safari/537.36" etag="dnS1Gum-4nAV4xo_AgdL" version="21.6.8" type="device">
  <diagram name="Page-1" id="13e1069c-82ec-6db2-03f1-153e76fe0fe0">
    <mxGraphModel dx="497" dy="879" grid="1" gridSize="10" guides="1" tooltips="1" connect="1" arrows="1" fold="1" page="1" pageScale="1" pageWidth="1100" pageHeight="850" background="none" math="0" shadow="0">
      <root>
        <mxCell id="0" />
        <mxCell id="1" parent="0" />
        <mxCell id="vbCiKknj39LDBQQFPNWX-22" value="Пользователь" style="shape=umlLifeline;perimeter=lifelinePerimeter;whiteSpace=wrap;html=1;container=0;dropTarget=0;collapsible=0;recursiveResize=0;outlineConnect=0;portConstraint=eastwest;newEdgeStyle={&quot;edgeStyle&quot;:&quot;elbowEdgeStyle&quot;,&quot;elbow&quot;:&quot;vertical&quot;,&quot;curved&quot;:0,&quot;rounded&quot;:0};" vertex="1" parent="1">
          <mxGeometry x="40" y="40" width="100" height="1060" as="geometry" />
        </mxCell>
        <mxCell id="vbCiKknj39LDBQQFPNWX-23" value="" style="html=1;points=[];perimeter=orthogonalPerimeter;outlineConnect=0;targetShapes=umlLifeline;portConstraint=eastwest;newEdgeStyle={&quot;edgeStyle&quot;:&quot;elbowEdgeStyle&quot;,&quot;elbow&quot;:&quot;vertical&quot;,&quot;curved&quot;:0,&quot;rounded&quot;:0};" vertex="1" parent="vbCiKknj39LDBQQFPNWX-22">
          <mxGeometry x="45" y="70" width="10" height="990" as="geometry" />
        </mxCell>
        <mxCell id="vbCiKknj39LDBQQFPNWX-24" value="Приложение" style="shape=umlLifeline;perimeter=lifelinePerimeter;whiteSpace=wrap;html=1;container=0;dropTarget=0;collapsible=0;recursiveResize=0;outlineConnect=0;portConstraint=eastwest;newEdgeStyle={&quot;edgeStyle&quot;:&quot;elbowEdgeStyle&quot;,&quot;elbow&quot;:&quot;vertical&quot;,&quot;curved&quot;:0,&quot;rounded&quot;:0};" vertex="1" parent="1">
          <mxGeometry x="220" y="40" width="100" height="1060" as="geometry" />
        </mxCell>
        <mxCell id="vbCiKknj39LDBQQFPNWX-25" value="" style="html=1;points=[];perimeter=orthogonalPerimeter;outlineConnect=0;targetShapes=umlLifeline;portConstraint=eastwest;newEdgeStyle={&quot;edgeStyle&quot;:&quot;elbowEdgeStyle&quot;,&quot;elbow&quot;:&quot;vertical&quot;,&quot;curved&quot;:0,&quot;rounded&quot;:0};" vertex="1" parent="vbCiKknj39LDBQQFPNWX-24">
          <mxGeometry x="45" y="80" width="10" height="840" as="geometry" />
        </mxCell>
        <mxCell id="vbCiKknj39LDBQQFPNWX-26" value="Открыть придожение" style="html=1;verticalAlign=bottom;endArrow=block;edgeStyle=elbowEdgeStyle;elbow=vertical;curved=0;rounded=0;" edge="1" parent="1">
          <mxGeometry x="0.0024" relative="1" as="geometry">
            <mxPoint x="95" y="130" as="sourcePoint" />
            <Array as="points">
              <mxPoint x="180" y="130" />
            </Array>
            <mxPoint x="265" y="130" as="targetPoint" />
            <mxPoint as="offset" />
          </mxGeometry>
        </mxCell>
        <mxCell id="vbCiKknj39LDBQQFPNWX-27" value="Открытое приложение" style="html=1;verticalAlign=bottom;endArrow=open;dashed=1;endSize=8;edgeStyle=elbowEdgeStyle;elbow=vertical;curved=0;rounded=0;" edge="1" parent="1">
          <mxGeometry relative="1" as="geometry">
            <mxPoint x="95" y="150" as="targetPoint" />
            <Array as="points">
              <mxPoint x="210" y="150" />
              <mxPoint x="190" y="270" />
            </Array>
            <mxPoint x="265" y="150" as="sourcePoint" />
            <mxPoint as="offset" />
          </mxGeometry>
        </mxCell>
        <mxCell id="vbCiKknj39LDBQQFPNWX-28" value="Backend" style="shape=umlLifeline;perimeter=lifelinePerimeter;whiteSpace=wrap;html=1;container=0;dropTarget=0;collapsible=0;recursiveResize=0;outlineConnect=0;portConstraint=eastwest;newEdgeStyle={&quot;edgeStyle&quot;:&quot;elbowEdgeStyle&quot;,&quot;elbow&quot;:&quot;vertical&quot;,&quot;curved&quot;:0,&quot;rounded&quot;:0};" vertex="1" parent="1">
          <mxGeometry x="400" y="40" width="100" height="1060" as="geometry" />
        </mxCell>
        <mxCell id="vbCiKknj39LDBQQFPNWX-29" value="" style="html=1;points=[];perimeter=orthogonalPerimeter;outlineConnect=0;targetShapes=umlLifeline;portConstraint=eastwest;newEdgeStyle={&quot;edgeStyle&quot;:&quot;elbowEdgeStyle&quot;,&quot;elbow&quot;:&quot;vertical&quot;,&quot;curved&quot;:0,&quot;rounded&quot;:0};" vertex="1" parent="vbCiKknj39LDBQQFPNWX-28">
          <mxGeometry x="45" y="160" width="10" height="40" as="geometry" />
        </mxCell>
        <mxCell id="vbCiKknj39LDBQQFPNWX-30" value="Стоимость бронирования" style="html=1;verticalAlign=bottom;endArrow=open;dashed=1;endSize=8;edgeStyle=elbowEdgeStyle;elbow=vertical;curved=0;rounded=0;" edge="1" parent="vbCiKknj39LDBQQFPNWX-28">
          <mxGeometry x="0.0028" relative="1" as="geometry">
            <mxPoint x="-125" y="350.00000000000006" as="targetPoint" />
            <Array as="points" />
            <mxPoint x="45" y="350.00000000000006" as="sourcePoint" />
            <mxPoint as="offset" />
          </mxGeometry>
        </mxCell>
        <mxCell id="vbCiKknj39LDBQQFPNWX-31" value="" style="html=1;points=[];perimeter=orthogonalPerimeter;outlineConnect=0;targetShapes=umlLifeline;portConstraint=eastwest;newEdgeStyle={&quot;edgeStyle&quot;:&quot;elbowEdgeStyle&quot;,&quot;elbow&quot;:&quot;vertical&quot;,&quot;curved&quot;:0,&quot;rounded&quot;:0};" vertex="1" parent="vbCiKknj39LDBQQFPNWX-28">
          <mxGeometry x="45" y="320" width="10" height="40" as="geometry" />
        </mxCell>
        <mxCell id="vbCiKknj39LDBQQFPNWX-32" value="Отправить запрос&lt;br&gt;с выбранными параметрами" style="html=1;verticalAlign=bottom;endArrow=block;edgeStyle=elbowEdgeStyle;elbow=vertical;curved=0;rounded=0;" edge="1" parent="vbCiKknj39LDBQQFPNWX-28">
          <mxGeometry x="0.0028" relative="1" as="geometry">
            <mxPoint x="-125" y="330" as="sourcePoint" />
            <Array as="points">
              <mxPoint x="-40" y="330" />
            </Array>
            <mxPoint x="45" y="330" as="targetPoint" />
            <mxPoint as="offset" />
          </mxGeometry>
        </mxCell>
        <mxCell id="vbCiKknj39LDBQQFPNWX-33" value="" style="html=1;points=[];perimeter=orthogonalPerimeter;outlineConnect=0;targetShapes=umlLifeline;portConstraint=eastwest;newEdgeStyle={&quot;edgeStyle&quot;:&quot;elbowEdgeStyle&quot;,&quot;elbow&quot;:&quot;vertical&quot;,&quot;curved&quot;:0,&quot;rounded&quot;:0};" vertex="1" parent="vbCiKknj39LDBQQFPNWX-28">
          <mxGeometry x="45" y="480" width="10" height="80" as="geometry" />
        </mxCell>
        <mxCell id="vbCiKknj39LDBQQFPNWX-34" value="Отправить запрос&lt;br&gt;с введёнными данными карты" style="html=1;verticalAlign=bottom;endArrow=block;edgeStyle=elbowEdgeStyle;elbow=vertical;curved=0;rounded=0;" edge="1" parent="vbCiKknj39LDBQQFPNWX-28">
          <mxGeometry x="0.0028" relative="1" as="geometry">
            <mxPoint x="-125" y="610" as="sourcePoint" />
            <Array as="points">
              <mxPoint x="-40" y="610" />
            </Array>
            <mxPoint x="45" y="610" as="targetPoint" />
            <mxPoint as="offset" />
          </mxGeometry>
        </mxCell>
        <mxCell id="vbCiKknj39LDBQQFPNWX-35" value="Подтверждение оплаты" style="html=1;verticalAlign=bottom;endArrow=open;dashed=1;endSize=8;edgeStyle=elbowEdgeStyle;elbow=vertical;curved=0;rounded=0;" edge="1" parent="vbCiKknj39LDBQQFPNWX-28">
          <mxGeometry x="0.0028" relative="1" as="geometry">
            <mxPoint x="-125" y="630" as="targetPoint" />
            <Array as="points" />
            <mxPoint x="45" y="630" as="sourcePoint" />
            <mxPoint as="offset" />
          </mxGeometry>
        </mxCell>
        <mxCell id="vbCiKknj39LDBQQFPNWX-36" value="" style="html=1;points=[];perimeter=orthogonalPerimeter;outlineConnect=0;targetShapes=umlLifeline;portConstraint=eastwest;newEdgeStyle={&quot;edgeStyle&quot;:&quot;elbowEdgeStyle&quot;,&quot;elbow&quot;:&quot;vertical&quot;,&quot;curved&quot;:0,&quot;rounded&quot;:0};" vertex="1" parent="vbCiKknj39LDBQQFPNWX-28">
          <mxGeometry x="45" y="600" width="10" height="40" as="geometry" />
        </mxCell>
        <mxCell id="vbCiKknj39LDBQQFPNWX-37" value="" style="html=1;points=[];perimeter=orthogonalPerimeter;outlineConnect=0;targetShapes=umlLifeline;portConstraint=eastwest;newEdgeStyle={&quot;edgeStyle&quot;:&quot;elbowEdgeStyle&quot;,&quot;elbow&quot;:&quot;vertical&quot;,&quot;curved&quot;:0,&quot;rounded&quot;:0};" vertex="1" parent="vbCiKknj39LDBQQFPNWX-28">
          <mxGeometry x="45" y="880" width="10" height="40" as="geometry" />
        </mxCell>
        <mxCell id="vbCiKknj39LDBQQFPNWX-38" value="Выбрать &quot;Найти&quot;" style="html=1;verticalAlign=bottom;endArrow=block;edgeStyle=elbowEdgeStyle;elbow=vertical;curved=0;rounded=0;" edge="1" parent="1">
          <mxGeometry relative="1" as="geometry">
            <mxPoint x="95" y="180" as="sourcePoint" />
            <Array as="points">
              <mxPoint x="185" y="180" />
            </Array>
            <mxPoint x="265" y="180" as="targetPoint" />
            <mxPoint as="offset" />
          </mxGeometry>
        </mxCell>
        <mxCell id="vbCiKknj39LDBQQFPNWX-39" value="Отправить запрос&lt;br&gt;на получение списка" style="html=1;verticalAlign=bottom;endArrow=block;edgeStyle=elbowEdgeStyle;elbow=vertical;curved=0;rounded=0;" edge="1" parent="1">
          <mxGeometry x="0.0028" relative="1" as="geometry">
            <mxPoint x="275" y="210" as="sourcePoint" />
            <Array as="points">
              <mxPoint x="360" y="210" />
            </Array>
            <mxPoint x="445" y="210" as="targetPoint" />
            <mxPoint as="offset" />
          </mxGeometry>
        </mxCell>
        <mxCell id="vbCiKknj39LDBQQFPNWX-40" value="Список отелей" style="html=1;verticalAlign=bottom;endArrow=open;dashed=1;endSize=8;edgeStyle=elbowEdgeStyle;elbow=vertical;curved=0;rounded=0;" edge="1" parent="1">
          <mxGeometry x="0.0028" relative="1" as="geometry">
            <mxPoint x="275" y="230" as="targetPoint" />
            <Array as="points">
              <mxPoint x="385" y="230" />
              <mxPoint x="365" y="350" />
            </Array>
            <mxPoint x="445" y="230" as="sourcePoint" />
            <mxPoint as="offset" />
          </mxGeometry>
        </mxCell>
        <mxCell id="vbCiKknj39LDBQQFPNWX-41" value="Выбрать &quot;Понравившийся&quot;" style="html=1;verticalAlign=bottom;endArrow=block;edgeStyle=elbowEdgeStyle;elbow=vertical;curved=0;rounded=0;" edge="1" parent="1" source="vbCiKknj39LDBQQFPNWX-23" target="vbCiKknj39LDBQQFPNWX-25">
          <mxGeometry x="0.0028" relative="1" as="geometry">
            <mxPoint x="105" y="260" as="sourcePoint" />
            <Array as="points">
              <mxPoint x="195" y="260" />
            </Array>
            <mxPoint x="260" y="260" as="targetPoint" />
            <mxPoint as="offset" />
          </mxGeometry>
        </mxCell>
        <mxCell id="vbCiKknj39LDBQQFPNWX-42" value="Список параметров" style="html=1;verticalAlign=bottom;endArrow=open;dashed=1;endSize=8;edgeStyle=elbowEdgeStyle;elbow=vertical;curved=0;rounded=0;" edge="1" parent="1">
          <mxGeometry x="0.0028" relative="1" as="geometry">
            <mxPoint x="275" y="310.00000000000006" as="targetPoint" />
            <Array as="points" />
            <mxPoint x="445" y="310.00000000000006" as="sourcePoint" />
            <mxPoint as="offset" />
          </mxGeometry>
        </mxCell>
        <mxCell id="vbCiKknj39LDBQQFPNWX-43" value="Выбрать &quot;Параметры&quot;" style="html=1;verticalAlign=bottom;endArrow=block;edgeStyle=elbowEdgeStyle;elbow=vertical;curved=0;rounded=0;" edge="1" parent="1" source="vbCiKknj39LDBQQFPNWX-23" target="vbCiKknj39LDBQQFPNWX-25">
          <mxGeometry x="0.0028" relative="1" as="geometry">
            <mxPoint x="100" y="340" as="sourcePoint" />
            <Array as="points">
              <mxPoint x="200" y="340" />
            </Array>
            <mxPoint x="260" y="340" as="targetPoint" />
            <mxPoint as="offset" />
          </mxGeometry>
        </mxCell>
        <mxCell id="vbCiKknj39LDBQQFPNWX-44" value="" style="html=1;points=[];perimeter=orthogonalPerimeter;outlineConnect=0;targetShapes=umlLifeline;portConstraint=eastwest;newEdgeStyle={&quot;edgeStyle&quot;:&quot;elbowEdgeStyle&quot;,&quot;elbow&quot;:&quot;vertical&quot;,&quot;curved&quot;:0,&quot;rounded&quot;:0};" vertex="1" parent="1">
          <mxGeometry x="445" y="280" width="10" height="40" as="geometry" />
        </mxCell>
        <mxCell id="vbCiKknj39LDBQQFPNWX-45" value="Отправить запрос&lt;br&gt;на получение параметров" style="html=1;verticalAlign=bottom;endArrow=block;edgeStyle=elbowEdgeStyle;elbow=vertical;curved=0;rounded=0;" edge="1" parent="1">
          <mxGeometry x="0.0028" relative="1" as="geometry">
            <mxPoint x="275" y="290" as="sourcePoint" />
            <Array as="points">
              <mxPoint x="360" y="290" />
            </Array>
            <mxPoint x="445" y="290" as="targetPoint" />
            <mxPoint as="offset" />
          </mxGeometry>
        </mxCell>
        <mxCell id="vbCiKknj39LDBQQFPNWX-46" value="Бронирование" style="html=1;verticalAlign=bottom;endArrow=open;dashed=1;endSize=8;edgeStyle=elbowEdgeStyle;elbow=vertical;curved=0;rounded=0;" edge="1" parent="1">
          <mxGeometry x="0.0028" relative="1" as="geometry">
            <mxPoint x="275" y="470.00000000000006" as="targetPoint" />
            <Array as="points" />
            <mxPoint x="445" y="470.00000000000006" as="sourcePoint" />
            <mxPoint as="offset" />
          </mxGeometry>
        </mxCell>
        <mxCell id="vbCiKknj39LDBQQFPNWX-47" value="" style="html=1;points=[];perimeter=orthogonalPerimeter;outlineConnect=0;targetShapes=umlLifeline;portConstraint=eastwest;newEdgeStyle={&quot;edgeStyle&quot;:&quot;elbowEdgeStyle&quot;,&quot;elbow&quot;:&quot;vertical&quot;,&quot;curved&quot;:0,&quot;rounded&quot;:0};" vertex="1" parent="1">
          <mxGeometry x="445" y="440" width="10" height="40" as="geometry" />
        </mxCell>
        <mxCell id="vbCiKknj39LDBQQFPNWX-48" value="Отправить запрос&lt;br&gt;с введёнными данными" style="html=1;verticalAlign=bottom;endArrow=block;edgeStyle=elbowEdgeStyle;elbow=vertical;curved=0;rounded=0;" edge="1" parent="1">
          <mxGeometry x="0.0026" relative="1" as="geometry">
            <mxPoint x="275" y="450" as="sourcePoint" />
            <Array as="points">
              <mxPoint x="360" y="450" />
            </Array>
            <mxPoint x="445" y="450" as="targetPoint" />
            <mxPoint as="offset" />
          </mxGeometry>
        </mxCell>
        <mxCell id="vbCiKknj39LDBQQFPNWX-49" value="Ввести &quot;Данные&quot;" style="html=1;verticalAlign=bottom;endArrow=block;edgeStyle=elbowEdgeStyle;elbow=vertical;curved=0;rounded=0;" edge="1" parent="1" source="vbCiKknj39LDBQQFPNWX-23" target="vbCiKknj39LDBQQFPNWX-25">
          <mxGeometry x="0.0028" relative="1" as="geometry">
            <mxPoint x="100" y="420" as="sourcePoint" />
            <Array as="points">
              <mxPoint x="195" y="420" />
            </Array>
            <mxPoint x="260" y="420" as="targetPoint" />
            <mxPoint as="offset" />
          </mxGeometry>
        </mxCell>
        <mxCell id="vbCiKknj39LDBQQFPNWX-50" value="Кинотеатр" style="shape=umlLifeline;perimeter=lifelinePerimeter;whiteSpace=wrap;html=1;container=0;dropTarget=0;collapsible=0;recursiveResize=0;outlineConnect=0;portConstraint=eastwest;newEdgeStyle={&quot;edgeStyle&quot;:&quot;elbowEdgeStyle&quot;,&quot;elbow&quot;:&quot;vertical&quot;,&quot;curved&quot;:0,&quot;rounded&quot;:0};" vertex="1" parent="1">
          <mxGeometry x="580" y="40" width="100" height="1060" as="geometry" />
        </mxCell>
        <mxCell id="vbCiKknj39LDBQQFPNWX-51" value="" style="html=1;points=[];perimeter=orthogonalPerimeter;outlineConnect=0;targetShapes=umlLifeline;portConstraint=eastwest;newEdgeStyle={&quot;edgeStyle&quot;:&quot;elbowEdgeStyle&quot;,&quot;elbow&quot;:&quot;vertical&quot;,&quot;curved&quot;:0,&quot;rounded&quot;:0};" vertex="1" parent="vbCiKknj39LDBQQFPNWX-50">
          <mxGeometry x="45" y="480" width="10" height="40" as="geometry" />
        </mxCell>
        <mxCell id="vbCiKknj39LDBQQFPNWX-52" value="Предъявить бронирование" style="html=1;verticalAlign=bottom;endArrow=block;edgeStyle=elbowEdgeStyle;elbow=vertical;curved=0;rounded=0;" edge="1" parent="vbCiKknj39LDBQQFPNWX-50" source="vbCiKknj39LDBQQFPNWX-25">
          <mxGeometry x="0.0028" relative="1" as="geometry">
            <mxPoint x="-300" y="810" as="sourcePoint" />
            <Array as="points">
              <mxPoint x="-40" y="810" />
            </Array>
            <mxPoint x="45" y="810" as="targetPoint" />
            <mxPoint as="offset" />
          </mxGeometry>
        </mxCell>
        <mxCell id="vbCiKknj39LDBQQFPNWX-53" value="" style="html=1;points=[];perimeter=orthogonalPerimeter;outlineConnect=0;targetShapes=umlLifeline;portConstraint=eastwest;newEdgeStyle={&quot;edgeStyle&quot;:&quot;elbowEdgeStyle&quot;,&quot;elbow&quot;:&quot;vertical&quot;,&quot;curved&quot;:0,&quot;rounded&quot;:0};" vertex="1" parent="vbCiKknj39LDBQQFPNWX-50">
          <mxGeometry x="45" y="800" width="10" height="40" as="geometry" />
        </mxCell>
        <mxCell id="vbCiKknj39LDBQQFPNWX-54" value="" style="html=1;points=[];perimeter=orthogonalPerimeter;outlineConnect=0;targetShapes=umlLifeline;portConstraint=eastwest;newEdgeStyle={&quot;edgeStyle&quot;:&quot;elbowEdgeStyle&quot;,&quot;elbow&quot;:&quot;vertical&quot;,&quot;curved&quot;:0,&quot;rounded&quot;:0};" vertex="1" parent="vbCiKknj39LDBQQFPNWX-50">
          <mxGeometry x="45" y="880" width="10" height="40" as="geometry" />
        </mxCell>
        <mxCell id="vbCiKknj39LDBQQFPNWX-55" value="" style="html=1;points=[];perimeter=orthogonalPerimeter;outlineConnect=0;targetShapes=umlLifeline;portConstraint=eastwest;newEdgeStyle={&quot;edgeStyle&quot;:&quot;elbowEdgeStyle&quot;,&quot;elbow&quot;:&quot;vertical&quot;,&quot;curved&quot;:0,&quot;rounded&quot;:0};" vertex="1" parent="vbCiKknj39LDBQQFPNWX-50">
          <mxGeometry x="45" y="960" width="10" height="40" as="geometry" />
        </mxCell>
        <mxCell id="vbCiKknj39LDBQQFPNWX-56" value="Билеты в кинотеатр" style="html=1;verticalAlign=bottom;endArrow=open;dashed=1;endSize=8;edgeStyle=elbowEdgeStyle;elbow=vertical;curved=0;rounded=0;" edge="1" parent="vbCiKknj39LDBQQFPNWX-50" target="vbCiKknj39LDBQQFPNWX-23">
          <mxGeometry x="0.0028" relative="1" as="geometry">
            <mxPoint x="-470" y="970" as="targetPoint" />
            <Array as="points" />
            <mxPoint x="45" y="970" as="sourcePoint" />
            <mxPoint as="offset" />
          </mxGeometry>
        </mxCell>
        <mxCell id="vbCiKknj39LDBQQFPNWX-57" value="" style="html=1;points=[];perimeter=orthogonalPerimeter;outlineConnect=0;targetShapes=umlLifeline;portConstraint=eastwest;newEdgeStyle={&quot;edgeStyle&quot;:&quot;elbowEdgeStyle&quot;,&quot;elbow&quot;:&quot;vertical&quot;,&quot;curved&quot;:0,&quot;rounded&quot;:0};" vertex="1" parent="vbCiKknj39LDBQQFPNWX-50">
          <mxGeometry x="45" y="1020" width="10" height="40" as="geometry" />
        </mxCell>
        <mxCell id="vbCiKknj39LDBQQFPNWX-58" value="Код\Ид\Номер зарез.номера" style="html=1;verticalAlign=bottom;endArrow=open;dashed=1;endSize=8;edgeStyle=elbowEdgeStyle;elbow=vertical;curved=0;rounded=0;" edge="1" parent="1">
          <mxGeometry x="0.0047" relative="1" as="geometry">
            <mxPoint x="455" y="550" as="targetPoint" />
            <Array as="points" />
            <mxPoint x="625" y="550" as="sourcePoint" />
            <mxPoint as="offset" />
          </mxGeometry>
        </mxCell>
        <mxCell id="vbCiKknj39LDBQQFPNWX-59" value="Код\Ид\Номер зарез.номера" style="html=1;verticalAlign=bottom;endArrow=open;dashed=1;endSize=8;edgeStyle=elbowEdgeStyle;elbow=vertical;curved=0;rounded=0;" edge="1" parent="1">
          <mxGeometry x="0.0047" relative="1" as="geometry">
            <mxPoint x="275" y="590" as="targetPoint" />
            <Array as="points" />
            <mxPoint x="445" y="590" as="sourcePoint" />
            <mxPoint as="offset" />
          </mxGeometry>
        </mxCell>
        <mxCell id="vbCiKknj39LDBQQFPNWX-60" value="Ввести &quot;Данные карты&quot;" style="html=1;verticalAlign=bottom;endArrow=block;edgeStyle=elbowEdgeStyle;elbow=vertical;curved=0;rounded=0;" edge="1" parent="1" source="vbCiKknj39LDBQQFPNWX-23" target="vbCiKknj39LDBQQFPNWX-25">
          <mxGeometry x="0.0028" relative="1" as="geometry">
            <mxPoint x="100" y="620" as="sourcePoint" />
            <Array as="points">
              <mxPoint x="200" y="620" />
            </Array>
            <mxPoint x="260" y="620" as="targetPoint" />
            <mxPoint as="offset" />
          </mxGeometry>
        </mxCell>
        <mxCell id="vbCiKknj39LDBQQFPNWX-61" value="Отправить запрос&lt;br&gt;с информацией о бронировании" style="html=1;verticalAlign=bottom;endArrow=block;edgeStyle=elbowEdgeStyle;elbow=vertical;curved=0;rounded=0;" edge="1" parent="1" source="vbCiKknj39LDBQQFPNWX-33" target="vbCiKknj39LDBQQFPNWX-51">
          <mxGeometry x="0.0028" relative="1" as="geometry">
            <mxPoint x="460" y="530" as="sourcePoint" />
            <Array as="points">
              <mxPoint x="535" y="530" />
            </Array>
            <mxPoint x="620" y="530" as="targetPoint" />
            <mxPoint as="offset" />
          </mxGeometry>
        </mxCell>
        <mxCell id="vbCiKknj39LDBQQFPNWX-62" value="Запросить бронирование" style="html=1;verticalAlign=bottom;endArrow=block;edgeStyle=elbowEdgeStyle;elbow=vertical;curved=0;rounded=0;" edge="1" parent="1" source="vbCiKknj39LDBQQFPNWX-23" target="vbCiKknj39LDBQQFPNWX-25">
          <mxGeometry x="0.0028" relative="1" as="geometry">
            <mxPoint x="100" y="760" as="sourcePoint" />
            <Array as="points">
              <mxPoint x="205" y="760" />
            </Array>
            <mxPoint x="260" y="760" as="targetPoint" />
            <mxPoint as="offset" />
          </mxGeometry>
        </mxCell>
        <mxCell id="vbCiKknj39LDBQQFPNWX-63" value="Отправить запрос&lt;br&gt;на получение бронирования" style="html=1;verticalAlign=bottom;endArrow=block;edgeStyle=elbowEdgeStyle;elbow=vertical;curved=0;rounded=0;" edge="1" parent="1">
          <mxGeometry x="0.0028" relative="1" as="geometry">
            <mxPoint x="275" y="770" as="sourcePoint" />
            <Array as="points">
              <mxPoint x="360" y="770" />
            </Array>
            <mxPoint x="445" y="770" as="targetPoint" />
            <mxPoint as="offset" />
          </mxGeometry>
        </mxCell>
        <mxCell id="vbCiKknj39LDBQQFPNWX-64" value="Бронирование" style="html=1;verticalAlign=bottom;endArrow=open;dashed=1;endSize=8;edgeStyle=elbowEdgeStyle;elbow=vertical;curved=0;rounded=0;" edge="1" parent="1">
          <mxGeometry x="0.0028" relative="1" as="geometry">
            <mxPoint x="275" y="790" as="targetPoint" />
            <Array as="points" />
            <mxPoint x="445" y="790" as="sourcePoint" />
            <mxPoint as="offset" />
          </mxGeometry>
        </mxCell>
        <mxCell id="vbCiKknj39LDBQQFPNWX-65" value="" style="html=1;points=[];perimeter=orthogonalPerimeter;outlineConnect=0;targetShapes=umlLifeline;portConstraint=eastwest;newEdgeStyle={&quot;edgeStyle&quot;:&quot;elbowEdgeStyle&quot;,&quot;elbow&quot;:&quot;vertical&quot;,&quot;curved&quot;:0,&quot;rounded&quot;:0};" vertex="1" parent="1">
          <mxGeometry x="445" y="760" width="10" height="40" as="geometry" />
        </mxCell>
        <mxCell id="vbCiKknj39LDBQQFPNWX-66" value="Предъявить бронирование" style="html=1;verticalAlign=bottom;endArrow=block;edgeStyle=elbowEdgeStyle;elbow=vertical;curved=0;rounded=0;" edge="1" parent="1">
          <mxGeometry x="0.0028" relative="1" as="geometry">
            <mxPoint x="95" y="840" as="sourcePoint" />
            <Array as="points">
              <mxPoint x="210" y="840" />
            </Array>
            <mxPoint x="265" y="840" as="targetPoint" />
            <mxPoint as="offset" />
          </mxGeometry>
        </mxCell>
        <mxCell id="vbCiKknj39LDBQQFPNWX-67" value="Билеты в кинотеатр" style="html=1;verticalAlign=bottom;endArrow=open;dashed=1;endSize=8;edgeStyle=elbowEdgeStyle;elbow=vertical;curved=0;rounded=0;" edge="1" parent="1" source="vbCiKknj39LDBQQFPNWX-25" target="vbCiKknj39LDBQQFPNWX-23">
          <mxGeometry x="0.0028" relative="1" as="geometry">
            <mxPoint x="100" y="880" as="targetPoint" />
            <Array as="points">
              <mxPoint x="250" y="880" />
            </Array>
            <mxPoint x="260" y="880" as="sourcePoint" />
            <mxPoint as="offset" />
          </mxGeometry>
        </mxCell>
        <mxCell id="vbCiKknj39LDBQQFPNWX-68" value="Пользователь явился" style="html=1;verticalAlign=bottom;endArrow=open;dashed=1;endSize=8;edgeStyle=elbowEdgeStyle;elbow=vertical;curved=0;rounded=0;" edge="1" parent="1">
          <mxGeometry x="0.0028" relative="1" as="geometry">
            <mxPoint x="455" y="930" as="targetPoint" />
            <Array as="points" />
            <mxPoint x="625" y="930" as="sourcePoint" />
            <mxPoint as="offset" />
          </mxGeometry>
        </mxCell>
        <mxCell id="vbCiKknj39LDBQQFPNWX-69" value="Бронирование" style="html=1;verticalAlign=bottom;endArrow=open;dashed=1;endSize=8;edgeStyle=elbowEdgeStyle;elbow=vertical;curved=0;rounded=0;" edge="1" parent="1">
          <mxGeometry x="0.0028" relative="1" as="geometry">
            <mxPoint x="275" y="950" as="targetPoint" />
            <Array as="points" />
            <mxPoint x="445" y="950" as="sourcePoint" />
            <mxPoint as="offset" />
          </mxGeometry>
        </mxCell>
        <mxCell id="vbCiKknj39LDBQQFPNWX-70" value="Занял место в кинотеатре" style="html=1;verticalAlign=bottom;endArrow=block;edgeStyle=elbowEdgeStyle;elbow=horizontal;curved=0;rounded=0;" edge="1" parent="1" source="vbCiKknj39LDBQQFPNWX-23" target="vbCiKknj39LDBQQFPNWX-57">
          <mxGeometry x="0.0028" relative="1" as="geometry">
            <mxPoint x="100" y="1070" as="sourcePoint" />
            <Array as="points">
              <mxPoint x="355.25" y="1070" />
            </Array>
            <mxPoint x="620" y="1070" as="targetPoint" />
            <mxPoint as="offset" />
          </mxGeometry>
        </mxCell>
        <mxCell id="vbCiKknj39LDBQQFPNWX-71" value="Смотрит фильм" style="html=1;verticalAlign=bottom;endArrow=open;dashed=1;endSize=8;edgeStyle=elbowEdgeStyle;elbow=vertical;curved=0;rounded=0;" edge="1" parent="1">
          <mxGeometry x="0.0028" relative="1" as="geometry">
            <mxPoint x="95" y="1089.9985185185185" as="targetPoint" />
            <Array as="points" />
            <mxPoint x="625" y="1089.9985185185185" as="sourcePoint" />
            <mxPoint as="offset" />
          </mxGeometry>
        </mxCell>
      </root>
    </mxGraphModel>
  </diagram>
</mxfile>
